<svg xmlns="http://www.w3.org/2000/svg" version="1.1" xmlns:xlink="http://www.w3.org/1999/xlink" xmlns:svgjs="http://svgjs.dev/svgjs" width="1000" height="623" viewBox="0 0 1000 623"><g transform="matrix(1,0,0,1,-0.6060606060606233,0.2522267206477409)"><svg viewBox="0 0 396 247" data-background-color="#000001" preserveAspectRatio="xMidYMid meet" height="623" width="1000" xmlns="http://www.w3.org/2000/svg" xmlns:xlink="http://www.w3.org/1999/xlink"><g id="tight-bounds" transform="matrix(1,0,0,1,0.2400000000000091,-0.09999999999999432)"><svg viewBox="0 0 395.52 247.2" height="247.2" width="395.52"><g><svg></svg></g><g><svg viewBox="0 0 395.52 247.2" height="247.2" width="395.52"><g transform="matrix(1,0,0,1,75.54432000000001,49.40140849956636)"><svg viewBox="0 0 244.43135999999996 148.39718300086727" height="148.39718300086727" width="244.43135999999996"><g><svg viewBox="0 0 244.43135999999996 148.39718300086727" height="148.39718300086727" width="244.43135999999996"><g><svg viewBox="0 0 244.43135999999996 148.39718300086727" height="148.39718300086727" width="244.43135999999996"><g><svg viewBox="0 0 244.43135999999996 148.39718300086727" height="148.39718300086727" width="244.43135999999996"><g id="textblocktransform"><svg viewBox="0 0 244.43135999999996 148.39718300086727" height="148.39718300086727" width="244.43135999999996" id="textblock"><g><svg viewBox="0 0 244.43135999999996 148.39718300086727" height="148.39718300086727" width="244.43135999999996"><g transform="matrix(1,0,0,1,0,0)"><svg width="244.43135999999996" viewBox="2.25 -35 57.65 35" height="148.39718300086727" data-palette-color="#44688b"><path d="M27.4 0L24.1-9.25 8.7-9.25 5.5 0 2.25 0 14.9-35 17.95-35 31.05 0 27.4 0ZM16.25-31.2L9.55-11.75 23.2-11.75 16.25-31.2ZM39.75 0L36.6 0 36.6-35 39.75-35 39.75-18.85 56.75-18.85 56.75-35 59.9-35 59.9 0 56.75 0 56.75-15.85 39.75-15.85 39.75 0Z" opacity="1" transform="matrix(1,0,0,1,0,0)" fill="#44688b" class="undefined-text-0" data-fill-palette-color="primary" id="text-0"></path></svg></g></svg></g></svg></g></svg></g></svg></g></svg></g></svg></g><path d="M139.165 43.401L139.165 0.622 385.121 0.622 385.121 246.578 139.165 246.578 139.165 203.799 152.548 203.799 152.548 233.195 371.738 233.195 371.738 14.005 152.548 14.005 152.548 43.401Z" fill="#44688b" stroke="transparent" data-fill-palette-color="primary"></path></svg></g><defs></defs></svg><rect width="395.52" height="247.2" fill="none" stroke="none" visibility="hidden"></rect></g></svg></g></svg>